<svg xmlns="http://www.w3.org/2000/svg" viewBox="0 0 220 80" width="220" height="80">
  <!-- BARREL (short tactical barrel) -->
  <rect x="5" y="29" width="80" height="10" rx="2" fill="#2D3436"/>
  <!-- MUZZLE BRAKE (compensator) -->
  <rect x="5" y="27" width="11" height="14" rx="2" fill="#2D3436"/>
  <line x1="8"  y1="27" x2="8"  y2="41" stroke="#636E72" stroke-width="1.2"/>
  <line x1="11" y1="27" x2="11" y2="41" stroke="#636E72" stroke-width="1.2"/>
  <!-- HEAT SHIELD (over barrel) with vent holes -->
  <rect x="14" y="26" width="64" height="6" rx="1.5" fill="#4A4A4A"/>
  <circle cx="20" cy="29" r="1.8" fill="#2D3436"/>
  <circle cx="27" cy="29" r="1.8" fill="#2D3436"/>
  <circle cx="34" cy="29" r="1.8" fill="#2D3436"/>
  <circle cx="41" cy="29" r="1.8" fill="#2D3436"/>
  <circle cx="48" cy="29" r="1.8" fill="#2D3436"/>
  <circle cx="55" cy="29" r="1.8" fill="#2D3436"/>
  <circle cx="62" cy="29" r="1.8" fill="#2D3436"/>
  <circle cx="69" cy="29" r="1.8" fill="#2D3436"/>
  <!-- TUBE MAGAZINE under barrel -->
  <rect x="5" y="41" width="76" height="7" rx="3.5" fill="#636E72"/>
  <ellipse cx="7" cy="44.5" rx="3" ry="5" fill="#4A4A4A"/>
  <!-- RECEIVER -->
  <rect x="83" y="22" width="44" height="28" rx="3" fill="#636E72"/>
  <!-- PICATINNY RAIL (top) -->
  <rect x="83" y="18" width="44" height="6" rx="1" fill="#2D3436"/>
  <rect x="87" y="20" width="5" height="2.5" rx="0.5" fill="#4A4A4A"/>
  <rect x="95" y="20" width="5" height="2.5" rx="0.5" fill="#4A4A4A"/>
  <rect x="103" y="20" width="5" height="2.5" rx="0.5" fill="#4A4A4A"/>
  <rect x="111" y="20" width="5" height="2.5" rx="0.5" fill="#4A4A4A"/>
  <rect x="119" y="20" width="5" height="2.5" rx="0.5" fill="#4A4A4A"/>
  <!-- GHOST RING REAR SIGHT -->
  <rect x="120" y="14" width="9" height="7" rx="1" fill="#2D3436"/>
  <circle cx="124.5" cy="17.5" r="2.5" fill="none" stroke="#B2BEC3" stroke-width="1"/>
  <!-- GHOST RING FRONT SIGHT -->
  <rect x="17" y="21" width="5" height="10" rx="1" fill="#2D3436"/>
  <!-- EJECTION PORT -->
  <rect x="92" y="25" width="18" height="11" rx="1" fill="#454545"/>
  <!-- BOX MAGAZINE (detachable) -->
  <path d="M86 50 L104 50 L106 67 L88 67 Z" fill="#2D3436"/>
  <line x1="90" y1="55" x2="102" y2="55" stroke="#636E72" stroke-width="1"/>
  <line x1="90" y1="60" x2="102" y2="60" stroke="#636E72" stroke-width="1"/>
  <!-- PISTOL GRIP (polymer/tactical) -->
  <path d="M116 50 L126 50 L128 64 L120 66 L114 57 Z" fill="#1E1E1E"/>
  <!-- GRIP TEXTURE -->
  <line x1="117" y1="53" x2="125" y2="53" stroke="#3D3D3D" stroke-width="1"/>
  <line x1="117" y1="57" x2="125" y2="57" stroke="#3D3D3D" stroke-width="1"/>
  <line x1="117" y1="61" x2="124" y2="61" stroke="#3D3D3D" stroke-width="1"/>
  <!-- TRIGGER GUARD (polymer frame) -->
  <path d="M87 50 Q100 63 116 50" fill="none" stroke="#3D3D3D" stroke-width="2.5"/>
  <!-- TRIGGER -->
  <rect x="100" y="43" width="3" height="12" rx="1" fill="#B2BEC3"/>
  <!-- FOLDING/COLLAPSIBLE STOCK (skeletal open) -->
  <!-- Top rail -->
  <rect x="127" y="21" width="68" height="5" rx="2" fill="#3D3D3D"/>
  <!-- Bottom rail -->
  <rect x="127" y="45" width="68" height="5" rx="2" fill="#3D3D3D"/>
  <!-- Struts connecting rails -->
  <rect x="148" y="26" width="5" height="19" rx="1" fill="#3D3D3D"/>
  <rect x="170" y="26" width="5" height="19" rx="1" fill="#3D3D3D"/>
  <!-- CHEEK REST PAD -->
  <rect x="127" y="26" width="68" height="8" rx="2" fill="#1E1E1E"/>
  <!-- BUTTPAD -->
  <rect x="193" y="21" width="7" height="29" rx="2" fill="#2D3436"/>
</svg>